<svg width="519" height="513" viewBox="0 0 519 513" fill="none" xmlns="http://www.w3.org/2000/svg">
<path d="M136.018 309C119.68 309 104.56 304.98 90.6602 296.939C77.0039 288.899 66.0302 277.934 57.7389 264.046C49.6914 250.158 45.6677 235.051 45.6677 218.726V147.823C45.6677 145.874 46.2774 144.29 47.4967 143.072C48.9599 141.854 50.545 141.245 52.252 141.245H86.6365C88.5873 141.245 90.1724 141.854 91.3918 143.072C92.6111 144.29 93.2207 145.874 93.2207 147.823V218.726C93.2207 230.909 97.3664 241.264 105.658 249.792C113.949 258.076 124.069 262.219 136.018 262.219C145.285 262.219 153.82 260.269 161.624 256.371C169.427 252.472 175.646 247.234 180.279 240.655C184.913 233.833 187.229 226.523 187.229 218.726V56.4532C187.229 54.7476 187.839 53.2857 189.058 52.0674C190.521 50.6055 192.228 49.8745 194.179 49.8745H227.832C229.783 49.8745 231.368 50.6055 232.588 52.0674C234.051 53.2857 234.782 54.7476 234.782 56.4532V218.726C234.782 235.295 230.515 250.523 221.98 264.411C213.688 278.056 201.983 288.899 186.864 296.939C171.988 304.98 155.04 309 136.018 309Z" fill="#00FFD1"/>
<path d="M291.546 306.442C288.619 306.442 287.156 304.98 287.156 302.056C287.156 300.107 287.644 298.523 288.619 297.305L360.681 181.813L284.23 59.7425C283.255 58.0369 282.767 56.2095 282.767 54.2603C282.767 51.5801 283.986 50.24 286.425 50.24L324.101 50.6055H326.296C330.442 50.6055 333.124 51.5801 334.344 53.5293L387.383 139.052L440.789 53.5293C441.521 52.311 442.618 51.5801 444.081 51.3364C445.788 50.8491 448.349 50.6055 451.763 50.6055L488.342 50.24C490.781 50.24 492 51.5801 492 54.2603C492 56.2095 491.512 58.0369 490.537 59.7425L339.099 302.421C337.148 305.102 333.612 306.442 328.491 306.442H291.546ZM446.276 306.442C441.155 306.442 437.741 305.102 436.034 302.421L411.16 262.584C409.697 259.904 408.965 257.711 408.965 256.005C408.965 253.569 409.819 251.132 411.526 248.696C412.745 246.747 415.306 242.604 419.207 236.269C423.353 229.691 426.523 225.061 428.718 222.381C431.157 219.701 433.229 218.361 434.936 218.361C436.4 218.361 437.619 219.214 438.594 220.919L486.147 297.305C487.123 298.523 487.611 300.107 487.611 302.056C487.611 304.98 486.147 306.442 483.221 306.442H446.276Z" fill="#00FFD1"/>
<path d="M65.5479 16.3074C66.9555 11.522 73.7338 11.522 75.1414 16.3074L83.9772 46.346C84.6179 48.5242 86.6458 49.9972 88.9154 49.933L120.229 49.047C125.217 48.9059 127.311 55.3567 123.192 58.1728L97.3452 75.8405C95.4694 77.1228 94.694 79.5086 95.4576 81.6486L105.976 111.127C107.653 115.826 102.169 119.813 98.2164 116.769L73.3953 97.6552C71.5972 96.2705 69.0921 96.2705 67.294 97.6552L42.4729 116.769C38.5201 119.813 33.0364 115.826 34.7131 111.127L45.2317 81.6486C45.9953 79.5086 45.2199 77.1228 43.3441 75.8405L17.4976 58.1728C13.3779 55.3567 15.4723 48.9059 20.4606 49.047L51.7739 49.933C54.0435 49.9972 56.0714 48.5242 56.7121 46.346L65.5479 16.3074Z" fill="#FBFF41"/>
<path d="M50.2277 467C49.4356 467 48.693 466.703 47.9999 466.109C47.4059 465.515 47.1089 464.772 47.1089 463.881V366.01C47.1089 365.218 47.4059 364.525 47.9999 363.931C48.693 363.238 49.4356 362.891 50.2277 362.891H66.2672C67.1583 362.891 67.9009 363.238 68.4949 363.931C69.089 364.525 69.386 365.218 69.386 366.01V445.02C69.386 445.812 69.683 446.555 70.2771 447.248C70.8712 447.842 71.5642 448.139 72.3563 448.139H108.297C109.188 448.139 109.93 448.436 110.524 449.03C111.119 449.624 111.416 450.317 111.416 451.109V463.881C111.416 464.772 111.119 465.515 110.524 466.109C109.93 466.703 109.188 467 108.297 467H50.2277ZM168.045 381.307C167.352 381.307 166.708 381.06 166.114 380.565C165.619 379.971 165.372 379.278 165.372 378.485V365.713C165.372 364.921 165.619 364.278 166.114 363.783C166.708 363.287 167.352 363.04 168.045 363.04H236.955C237.747 363.04 238.391 363.337 238.886 363.931C239.48 364.426 239.777 365.02 239.777 365.713V378.485C239.777 379.179 239.48 379.822 238.886 380.416C238.391 381.01 237.747 381.307 236.955 381.307H168.045ZM168.045 467C167.352 467 166.708 466.752 166.114 466.257C165.619 465.663 165.372 465.02 165.372 464.327V395.713C165.372 394.921 165.619 394.277 166.114 393.782C166.708 393.287 167.352 393.04 168.045 393.04H180.668C181.461 393.04 182.104 393.287 182.599 393.782C183.094 394.277 183.342 394.921 183.342 395.713V406.406C183.342 408.287 184.629 409.228 187.203 409.228H224.629C225.322 409.228 225.916 409.475 226.411 409.971C226.906 410.367 227.153 410.911 227.153 411.604V424.376C227.153 425.069 226.906 425.664 226.411 426.159C225.916 426.555 225.322 426.753 224.629 426.753H186.758C184.48 426.753 183.342 427.792 183.342 429.871V446.059C183.342 446.753 183.639 447.396 184.233 447.99C184.827 448.584 185.47 448.881 186.164 448.881H237.252C238.045 448.881 238.688 449.129 239.183 449.624C239.678 450.119 239.926 450.762 239.926 451.555V464.327C239.926 465.02 239.678 465.663 239.183 466.257C238.688 466.752 238.045 467 237.252 467H168.045ZM348.513 467C347.82 467 347.176 466.802 346.582 466.406C345.988 465.911 345.592 465.366 345.394 464.772L337.968 437.149C337.671 436.258 337.127 435.515 336.335 434.921C335.543 434.327 334.701 434.03 333.81 434.03H311.384C310.691 434.03 310.097 433.832 309.602 433.436C309.206 432.941 309.008 432.396 309.008 431.802V420.367C309.008 419.772 309.206 419.228 309.602 418.733C310.097 418.238 310.691 417.99 311.384 417.99H329.206C330.097 417.99 330.79 417.693 331.285 417.099C331.879 416.406 332.028 415.614 331.731 414.723L323.414 384.426C323.216 383.634 322.721 382.941 321.929 382.347C321.137 381.753 320.295 381.456 319.404 381.456H318.364C317.572 381.456 316.78 381.753 315.988 382.347C315.196 382.941 314.701 383.634 314.503 384.426L309.008 404.327C308.81 404.921 308.414 405.367 307.82 405.664C307.325 405.961 306.731 406.01 306.038 405.812L292.077 402.396C291.483 402.297 290.988 401.951 290.592 401.357C290.295 400.763 290.246 400.169 290.444 399.574L299.8 365.268C299.998 364.674 300.394 364.129 300.988 363.634C301.681 363.139 302.325 362.891 302.919 362.891H334.85C335.444 362.891 336.087 363.139 336.78 363.634C337.473 364.03 337.919 364.525 338.117 365.119L365.443 464.921V465.218C365.443 466.406 364.849 467 363.661 467H348.513ZM469.605 466.703C468.813 466.703 468.219 466.455 467.823 465.96C467.427 465.465 467.229 465.218 467.229 465.218C463.368 459.178 457.031 449.376 448.219 435.812C439.506 422.248 432.922 411.901 428.467 404.772C427.873 404.079 427.477 403.733 427.279 403.733C427.081 403.733 426.932 403.931 426.833 404.327C426.833 404.723 426.833 405.02 426.833 405.218L427.13 422.743C427.13 423.436 426.883 424.079 426.388 424.673C425.893 425.168 425.249 425.416 424.457 425.416H410.051C409.259 425.416 408.566 425.168 407.972 424.673C407.477 424.178 407.229 423.535 407.229 422.743V366.01C407.229 365.218 407.477 364.575 407.972 364.08C408.566 363.486 409.259 363.188 410.051 363.188H424.606C425.299 363.188 425.893 363.486 426.388 364.08L462.328 423.931C463.219 425.614 463.962 426.456 464.556 426.456C465.051 426.456 465.298 425.614 465.298 423.931L465.15 366.01C465.15 365.218 465.397 364.575 465.893 364.08C466.487 363.486 467.13 363.188 467.823 363.188H483.566C484.358 363.188 485.001 363.486 485.496 364.08C486.09 364.575 486.388 365.218 486.388 366.01V464.03C486.388 464.822 486.09 465.465 485.496 465.96C485.001 466.455 484.358 466.703 483.566 466.703H469.902H469.754H469.605Z" fill="white"/>
</svg>
